<?xml version="1.0" encoding="UTF-8"?>
<svg xmlns="http://www.w3.org/2000/svg" xmlns:xlink="http://www.w3.org/1999/xlink" width="3873" height="3873" viewBox="0 0 3873 3873">
<defs>
<clipPath id="clip-0">
<path clip-rule="evenodd" d="M 1936.5 0 C 3006 0 3873 867 3873 1936.5 C 3873 3006 3006 3873 1936.5 3873 C 867 3873 0 3006 0 1936.5 C 0 867 867 0 1936.5 0 "/>
</clipPath>
<radialGradient id="radial-pattern-0" gradientUnits="userSpaceOnUse" cx="0" cy="0" fx="0" fy="0" r="1549.19" gradientTransform="matrix(1, 0, 0, 1, 1936.5, 1936.5)">
<stop offset="0" stop-color="rgb(33.201599%, 33.201599%, 33.201599%)" stop-opacity="1"/>
<stop offset="0.0078125" stop-color="rgb(32.876587%, 32.876587%, 32.876587%)" stop-opacity="1"/>
<stop offset="0.0195312" stop-color="rgb(32.485962%, 32.485962%, 32.485962%)" stop-opacity="1"/>
<stop offset="0.03125" stop-color="rgb(32.095337%, 32.095337%, 32.095337%)" stop-opacity="1"/>
<stop offset="0.0429688" stop-color="rgb(31.704712%, 31.704712%, 31.704712%)" stop-opacity="1"/>
<stop offset="0.0546875" stop-color="rgb(31.314087%, 31.314087%, 31.314087%)" stop-opacity="1"/>
<stop offset="0.0664062" stop-color="rgb(30.923462%, 30.923462%, 30.923462%)" stop-opacity="1"/>
<stop offset="0.078125" stop-color="rgb(30.532837%, 30.532837%, 30.532837%)" stop-opacity="1"/>
<stop offset="0.0898438" stop-color="rgb(30.142212%, 30.142212%, 30.142212%)" stop-opacity="1"/>
<stop offset="0.101562" stop-color="rgb(29.751587%, 29.751587%, 29.751587%)" stop-opacity="1"/>
<stop offset="0.113281" stop-color="rgb(29.360962%, 29.360962%, 29.360962%)" stop-opacity="1"/>
<stop offset="0.125" stop-color="rgb(28.970337%, 28.970337%, 28.970337%)" stop-opacity="1"/>
<stop offset="0.136719" stop-color="rgb(28.579712%, 28.579712%, 28.579712%)" stop-opacity="1"/>
<stop offset="0.148438" stop-color="rgb(28.189087%, 28.189087%, 28.189087%)" stop-opacity="1"/>
<stop offset="0.160156" stop-color="rgb(27.798462%, 27.798462%, 27.798462%)" stop-opacity="1"/>
<stop offset="0.171875" stop-color="rgb(27.407837%, 27.407837%, 27.407837%)" stop-opacity="1"/>
<stop offset="0.183594" stop-color="rgb(27.017212%, 27.017212%, 27.017212%)" stop-opacity="1"/>
<stop offset="0.195312" stop-color="rgb(26.626587%, 26.626587%, 26.626587%)" stop-opacity="1"/>
<stop offset="0.207031" stop-color="rgb(26.235962%, 26.235962%, 26.235962%)" stop-opacity="1"/>
<stop offset="0.21875" stop-color="rgb(25.845337%, 25.845337%, 25.845337%)" stop-opacity="1"/>
<stop offset="0.230469" stop-color="rgb(25.454712%, 25.454712%, 25.454712%)" stop-opacity="1"/>
<stop offset="0.242188" stop-color="rgb(25.064087%, 25.064087%, 25.064087%)" stop-opacity="1"/>
<stop offset="0.253906" stop-color="rgb(24.737549%, 24.737549%, 24.737549%)" stop-opacity="1"/>
<stop offset="0.261719" stop-color="rgb(24.478149%, 24.478149%, 24.478149%)" stop-opacity="1"/>
<stop offset="0.269531" stop-color="rgb(24.217224%, 24.217224%, 24.217224%)" stop-opacity="1"/>
<stop offset="0.277344" stop-color="rgb(23.956299%, 23.956299%, 23.956299%)" stop-opacity="1"/>
<stop offset="0.285156" stop-color="rgb(23.696899%, 23.696899%, 23.696899%)" stop-opacity="1"/>
<stop offset="0.292969" stop-color="rgb(23.435974%, 23.435974%, 23.435974%)" stop-opacity="1"/>
<stop offset="0.300781" stop-color="rgb(23.175049%, 23.175049%, 23.175049%)" stop-opacity="1"/>
<stop offset="0.308594" stop-color="rgb(22.915649%, 22.915649%, 22.915649%)" stop-opacity="1"/>
<stop offset="0.316406" stop-color="rgb(22.654724%, 22.654724%, 22.654724%)" stop-opacity="1"/>
<stop offset="0.324219" stop-color="rgb(22.393799%, 22.393799%, 22.393799%)" stop-opacity="1"/>
<stop offset="0.332031" stop-color="rgb(22.134399%, 22.134399%, 22.134399%)" stop-opacity="1"/>
<stop offset="0.339844" stop-color="rgb(21.873474%, 21.873474%, 21.873474%)" stop-opacity="1"/>
<stop offset="0.347656" stop-color="rgb(21.612549%, 21.612549%, 21.612549%)" stop-opacity="1"/>
<stop offset="0.355469" stop-color="rgb(21.353149%, 21.353149%, 21.353149%)" stop-opacity="1"/>
<stop offset="0.363281" stop-color="rgb(21.092224%, 21.092224%, 21.092224%)" stop-opacity="1"/>
<stop offset="0.371094" stop-color="rgb(20.831299%, 20.831299%, 20.831299%)" stop-opacity="1"/>
<stop offset="0.378906" stop-color="rgb(20.571899%, 20.571899%, 20.571899%)" stop-opacity="1"/>
<stop offset="0.386719" stop-color="rgb(20.310974%, 20.310974%, 20.310974%)" stop-opacity="1"/>
<stop offset="0.394531" stop-color="rgb(20.050049%, 20.050049%, 20.050049%)" stop-opacity="1"/>
<stop offset="0.402344" stop-color="rgb(19.790649%, 19.790649%, 19.790649%)" stop-opacity="1"/>
<stop offset="0.410156" stop-color="rgb(19.529724%, 19.529724%, 19.529724%)" stop-opacity="1"/>
<stop offset="0.417969" stop-color="rgb(19.268799%, 19.268799%, 19.268799%)" stop-opacity="1"/>
<stop offset="0.425781" stop-color="rgb(19.009399%, 19.009399%, 19.009399%)" stop-opacity="1"/>
<stop offset="0.433594" stop-color="rgb(18.748474%, 18.748474%, 18.748474%)" stop-opacity="1"/>
<stop offset="0.441406" stop-color="rgb(18.487549%, 18.487549%, 18.487549%)" stop-opacity="1"/>
<stop offset="0.449219" stop-color="rgb(18.228149%, 18.228149%, 18.228149%)" stop-opacity="1"/>
<stop offset="0.457031" stop-color="rgb(17.967224%, 17.967224%, 17.967224%)" stop-opacity="1"/>
<stop offset="0.464844" stop-color="rgb(17.706299%, 17.706299%, 17.706299%)" stop-opacity="1"/>
<stop offset="0.472656" stop-color="rgb(17.446899%, 17.446899%, 17.446899%)" stop-opacity="1"/>
<stop offset="0.480469" stop-color="rgb(17.185974%, 17.185974%, 17.185974%)" stop-opacity="1"/>
<stop offset="0.488281" stop-color="rgb(16.925049%, 16.925049%, 16.925049%)" stop-opacity="1"/>
<stop offset="0.496094" stop-color="rgb(16.665649%, 16.665649%, 16.665649%)" stop-opacity="1"/>
<stop offset="0.503906" stop-color="rgb(16.340637%, 16.340637%, 16.340637%)" stop-opacity="1"/>
<stop offset="0.515625" stop-color="rgb(15.950012%, 15.950012%, 15.950012%)" stop-opacity="1"/>
<stop offset="0.527344" stop-color="rgb(15.559387%, 15.559387%, 15.559387%)" stop-opacity="1"/>
<stop offset="0.539062" stop-color="rgb(15.168762%, 15.168762%, 15.168762%)" stop-opacity="1"/>
<stop offset="0.550781" stop-color="rgb(14.778137%, 14.778137%, 14.778137%)" stop-opacity="1"/>
<stop offset="0.5625" stop-color="rgb(14.387512%, 14.387512%, 14.387512%)" stop-opacity="1"/>
<stop offset="0.574219" stop-color="rgb(13.996887%, 13.996887%, 13.996887%)" stop-opacity="1"/>
<stop offset="0.585938" stop-color="rgb(13.606262%, 13.606262%, 13.606262%)" stop-opacity="1"/>
<stop offset="0.597656" stop-color="rgb(13.215637%, 13.215637%, 13.215637%)" stop-opacity="1"/>
<stop offset="0.609375" stop-color="rgb(12.825012%, 12.825012%, 12.825012%)" stop-opacity="1"/>
<stop offset="0.621094" stop-color="rgb(12.434387%, 12.434387%, 12.434387%)" stop-opacity="1"/>
<stop offset="0.632812" stop-color="rgb(12.107849%, 12.107849%, 12.107849%)" stop-opacity="1"/>
<stop offset="0.640625" stop-color="rgb(11.846924%, 11.846924%, 11.846924%)" stop-opacity="1"/>
<stop offset="0.648438" stop-color="rgb(11.587524%, 11.587524%, 11.587524%)" stop-opacity="1"/>
<stop offset="0.65625" stop-color="rgb(11.326599%, 11.326599%, 11.326599%)" stop-opacity="1"/>
<stop offset="0.664062" stop-color="rgb(11.065674%, 11.065674%, 11.065674%)" stop-opacity="1"/>
<stop offset="0.671875" stop-color="rgb(10.806274%, 10.806274%, 10.806274%)" stop-opacity="1"/>
<stop offset="0.679688" stop-color="rgb(10.545349%, 10.545349%, 10.545349%)" stop-opacity="1"/>
<stop offset="0.6875" stop-color="rgb(10.284424%, 10.284424%, 10.284424%)" stop-opacity="1"/>
<stop offset="0.695312" stop-color="rgb(10.025024%, 10.025024%, 10.025024%)" stop-opacity="1"/>
<stop offset="0.703125" stop-color="rgb(9.764099%, 9.764099%, 9.764099%)" stop-opacity="1"/>
<stop offset="0.710938" stop-color="rgb(9.503174%, 9.503174%, 9.503174%)" stop-opacity="1"/>
<stop offset="0.71875" stop-color="rgb(9.243774%, 9.243774%, 9.243774%)" stop-opacity="1"/>
<stop offset="0.726562" stop-color="rgb(8.982849%, 8.982849%, 8.982849%)" stop-opacity="1"/>
<stop offset="0.734375" stop-color="rgb(8.721924%, 8.721924%, 8.721924%)" stop-opacity="1"/>
<stop offset="0.742188" stop-color="rgb(8.462524%, 8.462524%, 8.462524%)" stop-opacity="1"/>
<stop offset="0.75" stop-color="rgb(8.201599%, 8.201599%, 8.201599%)" stop-opacity="1"/>
<stop offset="0.757812" stop-color="rgb(7.876587%, 7.876587%, 7.876587%)" stop-opacity="1"/>
<stop offset="0.769531" stop-color="rgb(7.485962%, 7.485962%, 7.485962%)" stop-opacity="1"/>
<stop offset="0.78125" stop-color="rgb(7.095337%, 7.095337%, 7.095337%)" stop-opacity="1"/>
<stop offset="0.792969" stop-color="rgb(6.704712%, 6.704712%, 6.704712%)" stop-opacity="1"/>
<stop offset="0.804688" stop-color="rgb(6.314087%, 6.314087%, 6.314087%)" stop-opacity="1"/>
<stop offset="0.816406" stop-color="rgb(5.987549%, 5.987549%, 5.987549%)" stop-opacity="1"/>
<stop offset="0.824219" stop-color="rgb(5.728149%, 5.728149%, 5.728149%)" stop-opacity="1"/>
<stop offset="0.832031" stop-color="rgb(5.467224%, 5.467224%, 5.467224%)" stop-opacity="1"/>
<stop offset="0.839844" stop-color="rgb(5.206299%, 5.206299%, 5.206299%)" stop-opacity="1"/>
<stop offset="0.847656" stop-color="rgb(4.946899%, 4.946899%, 4.946899%)" stop-opacity="1"/>
<stop offset="0.855469" stop-color="rgb(4.685974%, 4.685974%, 4.685974%)" stop-opacity="1"/>
<stop offset="0.863281" stop-color="rgb(4.425049%, 4.425049%, 4.425049%)" stop-opacity="1"/>
<stop offset="0.871094" stop-color="rgb(4.165649%, 4.165649%, 4.165649%)" stop-opacity="1"/>
<stop offset="0.878906" stop-color="rgb(3.840637%, 3.840637%, 3.840637%)" stop-opacity="1"/>
<stop offset="0.890625" stop-color="rgb(3.450012%, 3.450012%, 3.450012%)" stop-opacity="1"/>
<stop offset="0.902344" stop-color="rgb(3.059387%, 3.059387%, 3.059387%)" stop-opacity="1"/>
<stop offset="0.914062" stop-color="rgb(2.732849%, 2.732849%, 2.732849%)" stop-opacity="1"/>
<stop offset="0.921875" stop-color="rgb(2.471924%, 2.471924%, 2.471924%)" stop-opacity="1"/>
<stop offset="0.929688" stop-color="rgb(2.212524%, 2.212524%, 2.212524%)" stop-opacity="1"/>
<stop offset="0.9375" stop-color="rgb(1.951599%, 1.951599%, 1.951599%)" stop-opacity="1"/>
<stop offset="0.945312" stop-color="rgb(1.626587%, 1.626587%, 1.626587%)" stop-opacity="1"/>
<stop offset="0.957031" stop-color="rgb(1.300049%, 1.300049%, 1.300049%)" stop-opacity="1"/>
<stop offset="0.964844" stop-color="rgb(1.040649%, 1.040649%, 1.040649%)" stop-opacity="1"/>
<stop offset="0.972656" stop-color="rgb(0.715637%, 0.715637%, 0.715637%)" stop-opacity="1"/>
<stop offset="0.984375" stop-color="rgb(0.389099%, 0.389099%, 0.389099%)" stop-opacity="1"/>
<stop offset="0.992188" stop-color="rgb(0.1297%, 0.1297%, 0.1297%)" stop-opacity="1"/>
<stop offset="1" stop-color="rgb(0%, 0%, 0%)" stop-opacity="1"/>
</radialGradient>
</defs>
<g clip-path="url(#clip-0)">
<rect x="-387.3" y="-387.3" width="4647.6" height="4647.6" fill="url(#radial-pattern-0)"/>
</g>
<path fill-rule="evenodd" fill="rgb(100%, 100%, 99.609375%)" fill-opacity="1" d="M 1712.199219 2750.601562 L 1805.398438 2536.199219 C 1810.101562 2525 1821.300781 2517.699219 1833.800781 2517.699219 L 2039.601562 2517.699219 C 2052.101562 2517.699219 2063.199219 2525 2068 2536.199219 L 2161.199219 2750.601562 L 1712.199219 2750.601562 "/>
<path fill-rule="evenodd" fill="rgb(100%, 100%, 99.609375%)" fill-opacity="1" d="M 2264.800781 2961.199219 L 1608.199219 2961.199219 C 1591 2961.199219 1577.300781 2947.5 1577.300781 2930.300781 L 1577.300781 2855.898438 C 1577.300781 2797.898438 1624.601562 2750.601562 1682.601562 2750.601562 L 2190.601562 2750.601562 C 2248.601562 2750.601562 2295.898438 2797.898438 2295.898438 2855.898438 L 2295.898438 2930.300781 C 2295.800781 2947 2282 2961.199219 2264.800781 2961.199219 "/>
<path fill-rule="evenodd" fill="rgb(100%, 100%, 99.609375%)" fill-opacity="1" d="M 1426.398438 1886 C 1389.398438 1849 1389.398438 1788.5 1426.398438 1751.5 L 1470.199219 1707.699219 C 1464.199219 1694.398438 1458.601562 1681.101562 1453.398438 1667.300781 L 1391.5 1667.300781 C 1339.101562 1667.300781 1296.5 1624.699219 1296.5 1572.300781 L 1296.5 1410.300781 L 1240.199219 1410.300781 C 1144.800781 1410.300781 1067 1488.101562 1067 1583.5 L 1067 2191.800781 C 1076.699219 2188.398438 1087.101562 2190.699219 1097.898438 2190.699219 L 2774.800781 2190.699219 C 2785.199219 2190.699219 2795.101562 2192.398438 2804.398438 2195.5 L 2804.398438 1583.5 C 2804.398438 1488.101562 2726.601562 1410.300781 2631.199219 1410.300781 L 2577 1410.300781 L 2577 1572.699219 C 2577 1625.101562 2534.5 1667.699219 2482 1667.699219 L 2420.101562 1667.699219 C 2414.898438 1681.398438 2409.398438 1695.199219 2403.300781 1708.101562 L 2447.101562 1751.898438 C 2465.101562 1769.898438 2475 1793.601562 2475 1819.398438 C 2475 1845.199219 2465.101562 1868.800781 2447.101562 1886.898438 L 2332.300781 2002 C 2295.300781 2039 2234.800781 2039 2197.800781 2002 L 2154 1958.199219 C 2140.699219 1964.199219 2127.398438 1969.800781 2113.601562 1975 L 2113.601562 2036.898438 C 2113.199219 2088.5 2070.601562 2131 2018.199219 2131 L 1855.300781 2131 C 1802.898438 2131 1760.300781 2088.398438 1760.300781 2036 L 1760.300781 1974.101562 C 1746.601562 1968.898438 1733.199219 1963.398438 1719.898438 1957.300781 L 1676.101562 2001.101562 C 1639.101562 2038.101562 1578.601562 2038.101562 1541.601562 2001.101562 L 1426.398438 1886 "/>
<path fill-rule="evenodd" fill="rgb(100%, 100%, 99.609375%)" fill-opacity="1" d="M 1554.398438 1490.199219 C 1554.398438 1279.601562 1725.898438 1108.199219 1936.398438 1108.199219 C 2146.898438 1108.199219 2318.398438 1279.699219 2318.398438 1490.199219 C 2318.398438 1700.699219 2146.898438 1872.199219 1936.398438 1872.199219 C 1725.898438 1872.199219 1554.398438 1700.800781 1554.398438 1490.199219 Z M 1390.300781 1604.898438 L 1474.5 1604.898438 C 1487.800781 1604.898438 1499.800781 1613.5 1504.101562 1626.398438 C 1511.800781 1651.300781 1522.101562 1675.800781 1534.199219 1699 C 1540.699219 1711 1538.101562 1725.601562 1528.601562 1735.101562 L 1469.300781 1794.398438 C 1456.398438 1807.300781 1456.398438 1828.300781 1469.300781 1841.699219 L 1584.5 1956.898438 C 1597.398438 1969.800781 1618.398438 1969.800781 1631.800781 1956.898438 L 1691.101562 1897.601562 C 1698.898438 1889.800781 1710.199219 1887 1720.699219 1889.601562 C 1723 1890.199219 1725.199219 1891 1727.199219 1892 C 1750.398438 1904 1774.898438 1914.398438 1799.800781 1922.101562 C 1812.699219 1926 1821.300781 1938 1821.300781 1951.699219 L 1821.300781 2035.898438 C 1821.300781 2054.398438 1836.300781 2069 1854.398438 2069 L 2017.300781 2069 C 2035.800781 2069 2050.398438 2054 2050.398438 2035.898438 L 2050.398438 1951.699219 C 2050.398438 1938.398438 2059 1926.398438 2071.898438 1922.101562 C 2096.800781 1914.398438 2121.300781 1904.101562 2144.5 1892 C 2156.5 1885.5 2171.101562 1888.101562 2180.601562 1897.601562 L 2239.898438 1956.898438 C 2252.800781 1969.800781 2273.800781 1969.800781 2287.199219 1956.898438 L 2402.398438 1841.699219 C 2408.898438 1835.199219 2412.300781 1827.101562 2412.300781 1818.101562 C 2412.300781 1809.101562 2408.898438 1800.898438 2402.398438 1794.5 L 2343.101562 1735.199219 C 2333.699219 1725.800781 2331.5 1711.101562 2337.5 1699.101562 C 2349.5 1675.898438 2359.898438 1651.398438 2367.601562 1626.5 C 2371.5 1613.601562 2383.5 1605 2397.199219 1605 L 2481.398438 1605 C 2499.898438 1605 2514.5 1590 2514.5 1571.898438 L 2514.5 1409 C 2514.5 1390.5 2499.5 1375.898438 2481.398438 1375.898438 L 2397.199219 1375.898438 C 2383.898438 1375.898438 2371.898438 1367.300781 2367.601562 1354.398438 C 2359.898438 1329.5 2349.601562 1305 2337.5 1281.800781 C 2331 1269.800781 2333.601562 1255.199219 2343.101562 1245.699219 L 2402.398438 1186.398438 C 2408.898438 1179.898438 2412.300781 1171.800781 2412.300781 1162.800781 C 2412.300781 1153.800781 2408.898438 1145.601562 2402.398438 1139.199219 L 2287.199219 1024 C 2274.300781 1011.101562 2253.300781 1011.101562 2239.898438 1024 L 2180.601562 1083.300781 C 2171.199219 1092.699219 2156.5 1094.898438 2144.5 1088.898438 C 2121.300781 1076.898438 2096.800781 1066.5 2071.898438 1058.800781 C 2059 1054.898438 2050.398438 1042.898438 2050.398438 1029.199219 L 2050.398438 945 C 2050.398438 926.5 2035.398438 911.898438 2017.300781 911.898438 L 1854.398438 911.898438 C 1835.898438 911.898438 1821.300781 926.898438 1821.300781 945 L 1821.300781 1029.199219 C 1821.300781 1042.5 1812.699219 1054.5 1799.800781 1058.800781 C 1774.898438 1066.5 1750.398438 1076.800781 1727.199219 1088.898438 C 1715.199219 1095.398438 1700.5 1092.800781 1691.101562 1083.300781 L 1631.800781 1024 C 1625.300781 1017.5 1617.199219 1014.101562 1608.199219 1014.101562 C 1599.199219 1014.101562 1591 1017.5 1584.601562 1024 L 1469.398438 1139.199219 C 1456.5 1152.101562 1456.5 1173.101562 1469.398438 1186.5 L 1528.699219 1245.800781 C 1538.101562 1255.199219 1540.300781 1269.898438 1534.300781 1281.898438 C 1522.300781 1305.101562 1511.898438 1329.601562 1504.199219 1354.5 C 1500.300781 1367.398438 1488.300781 1376 1474.601562 1376 L 1390.398438 1376 C 1371.898438 1376 1357.300781 1391 1357.300781 1409.101562 L 1357.300781 1571.898438 C 1357.199219 1590.300781 1372.199219 1604.898438 1390.300781 1604.898438 "/>
<path fill-rule="evenodd" fill="rgb(100%, 100%, 99.609375%)" fill-opacity="1" d="M 2027.601562 1645.300781 C 2015.601562 1633.300781 2015.601562 1613.5 2027.601562 1601.5 L 2139.300781 1489.800781 L 2027.601562 1378 C 2015.601562 1366 2015.601562 1346.199219 2027.601562 1334.199219 C 2039.601562 1322.199219 2059.398438 1322.199219 2071.398438 1334.199219 L 2205 1467.800781 C 2217 1479.800781 2217 1499.601562 2205 1511.601562 L 2071.398438 1645.199219 C 2065.398438 1651.199219 2057.199219 1654.300781 2049.5 1654.300781 C 2041.800781 1654.398438 2033.601562 1651.398438 2027.601562 1645.300781 Z M 1865.101562 1655.699219 L 1947.601562 1309.800781 C 1951.5 1293 1968.199219 1282.699219 1985 1287 C 2001.800781 1290.898438 2012.101562 1307.601562 2007.800781 1324.398438 L 1925.300781 1670.300781 C 1921.898438 1684.5 1909.398438 1693.898438 1895.199219 1693.898438 C 1892.601562 1693.898438 1890.5 1693.5 1887.898438 1693 C 1871.199219 1689.199219 1860.898438 1672.398438 1865.101562 1655.699219 Z M 1801.5 1334.199219 C 1813.5 1322.199219 1833.300781 1322.199219 1845.300781 1334.199219 C 1857.300781 1346.199219 1857.300781 1366 1845.300781 1378 L 1733.601562 1489.699219 L 1845.300781 1601.398438 C 1857.300781 1613.398438 1857.300781 1633.199219 1845.300781 1645.199219 C 1839.300781 1651.199219 1831.5 1654.199219 1823.398438 1654.199219 C 1815.699219 1654.199219 1807.5 1651.199219 1801.5 1645.199219 L 1667.898438 1511.601562 C 1655.898438 1499.601562 1655.898438 1479.800781 1667.898438 1467.800781 Z M 1936.5 1169.601562 C 1759.898438 1169.601562 1616.300781 1313.101562 1616.300781 1489.800781 C 1616.300781 1666.398438 1759.800781 1810 1936.5 1810 C 2113.101562 1810 2256.699219 1666.5 2256.699219 1489.800781 C 2256.699219 1313.101562 2113.101562 1169.601562 1936.5 1169.601562 "/>
<path fill-rule="evenodd" fill="rgb(100%, 100%, 99.609375%)" fill-opacity="1" d="M 1761.601562 2415.898438 C 1761.601562 2398.699219 1775.300781 2385 1792.5 2385 L 2357.601562 2385 C 2374.800781 2385 2388.5 2398.699219 2388.5 2415.898438 C 2388.5 2433.101562 2374.699219 2446.800781 2357.601562 2446.800781 L 1792.5 2446.800781 C 1775.300781 2446.800781 1761.601562 2433.101562 1761.601562 2415.898438 Z M 1567.800781 2499.199219 C 1521.800781 2499.199219 1484 2461.800781 1484 2415.398438 C 1484 2369 1521.398438 2331.601562 1567.800781 2331.601562 C 1614.199219 2331.601562 1651.601562 2369 1651.601562 2415.398438 C 1651.601562 2461.800781 1614.199219 2499.199219 1567.800781 2499.199219 Z M 2774.898438 2252.601562 L 1098 2252.601562 C 1080.800781 2252.601562 1067.101562 2266.398438 1067.101562 2283.5 L 1067.101562 2406.398438 C 1067.101562 2501.800781 1144.898438 2579.601562 1240.300781 2579.601562 L 1786.601562 2579.601562 L 1805.5 2536.199219 C 1810.199219 2525 1821.398438 2517.699219 1833.898438 2517.699219 L 2039.699219 2517.699219 C 2052.199219 2517.699219 2063.300781 2525 2068.101562 2536.199219 L 2087 2579.601562 L 2632.800781 2579.601562 C 2728.199219 2579.601562 2806 2501.800781 2806 2406.398438 L 2806 2283.5 C 2805.898438 2266.300781 2792.101562 2252.601562 2774.898438 2252.601562 "/>
<path fill-rule="evenodd" fill="rgb(100%, 100%, 99.609375%)" fill-opacity="1" d="M 1567.800781 2455.300781 C 1589.300781 2455.300781 1607.601562 2437 1607.601562 2415.5 C 1607.601562 2394 1590.101562 2375.699219 1567.800781 2375.699219 C 1545.5 2375.699219 1528 2394 1528 2415.5 C 1527.898438 2437 1546.300781 2455.300781 1567.800781 2455.300781 "/>
</svg>
